PathFileType	4	(X/Y/Z)	pose_F01_0-60.trc
DataRate	CameraRate	NumFrames	NumMarkers	Units	OrigDataRate	OrigDataStartFrame	OrigNumFrames
30	30	7	21	m	30	10	60
Frame#	Time	CHip			RHip			RKnee			RAnkle			RBigToe			RSmallToe			RHeel			LHip			LKnee			LAnkle			LBigToe			LSmallToe			LHeel			Neck			Nose			RShoulder			RElbow			RWrist			LShoulder			LElbow			LWrist			
		X1	Y1	Z1	X2	Y2	Z2	X3	Y3	Z3	X4	Y4	Z4	X5	Y5	Z5	X6	Y6	Z6	X7	Y7	Z7	X8	Y8	Z8	X9	Y9	Z9	X10	Y10	Z10	X11	Y11	Z11	X12	Y12	Z12	X13	Y13	Z13	X14	Y14	Z14	X15	Y15	Z15	X16	Y16	Z16	X17	Y17	Z17	X18	Y18	Z18	X19	Y19	Z19	X20	Y20	Z20	X21	Y21	Z21	
10	0.3333333333333333	-0.16815653792390237	1.8367073667034037	-0.5732270014238399	-0.18177379672140434	1.8334750798437278	-0.5054570004185516	-0.1777334866603734	1.707904587640134	-0.5114985179120426	-0.1730511138885259	1.5858845858933504	-0.516334477911791	-0.20328530891669677	1.556331791959528	-0.4944468593962314	-0.18196402503514378	1.5510941417827961	-0.48422239061657135	-0.16788393873954963	1.5784800353399953	-0.5298593721147933	-0.15643454063234916	1.8384463029738836	-0.6327430210763357	-0.17638706751013744	1.7111002815335852	-0.5966760776737114	-0.1585042547917141	1.5784773569648767	-0.6136729094829602	-0.18932886073798252	1.5466816837283157	-0.5873299642792449	-0.18285756954151103	1.5469370700742229	-0.61868036427029	-0.14774766851659127	1.5682876987892815	-0.6106598213493014	-0.16476958725178034	1.9890619177295805	-0.5966414478719609	-0.1851277997148159	2.0372768557514296	-0.5835735516500064	-0.1825057017775837	1.9846818249418774	-0.49667165377873784	-0.20375082134798667	1.9011298646411898	-0.4411759348200919	-0.2248340593621799	1.9024218294750188	-0.45835244017208565	-0.14349286830921193	1.9934074948573561	-0.6934980696288227	-0.13423777299551012	1.9099495170855338	-0.713922101584338	-0.2270065785720799	1.9112366972827899	-0.6696166660362215
11	0.36666666666666664	-0.1692499231277766	1.8355154958974342	-0.5761049655802688	-0.18296860159580483	1.8324993642530059	-0.5085130197696237	-0.17989797859179602	1.7065660866448762	-0.5089898079164372	-0.1721830224382519	1.5861127466806164	-0.5130826577398591	-0.2045251541252826	1.5544951689960484	-0.4883866844888714	-0.18196402503514378	1.5510941417827961	-0.48422239061657135	-0.1698466230693756	1.5782770229926841	-0.5275977469544851	-0.1574863209851207	1.8373673085572353	-0.6356057890154585	-0.1778841955481799	1.7126245399757456	-0.5993269633940447	-0.15879971722285918	1.5797278950533162	-0.6133162845165911	-0.18853697125900098	1.5477123110048325	-0.5836765400074352	-0.18185643009748975	1.5468234386670834	-0.6154014886340371	-0.14888943943335778	1.5694488003478961	-0.6135365247572827	-0.16705759683251337	1.9868058376075768	-0.5944544092612869	-0.18719332693433385	2.0382303191466686	-0.5811771768144339	-0.18471019839740602	1.9824272473489024	-0.4944154410732495	-0.20054900523302993	1.8977057862806095	-0.4455529233576291	-0.2248340593621799	1.9024218294750188	-0.45835244017208565	-0.14360320219500375	1.9933311779775156	-0.6934009332395356	-0.13045872725677216	1.91283458484987	-0.7220896946766588	-0.2270065785720799	1.9112366972827899	-0.6696166660362215
12	0.4	-0.16870039578050589	1.8328132049483288	-0.5759606039107222	-0.18260964786350103	1.8286103520880723	-0.5080435923922224	-0.1776235486243161	1.703732072365314	-0.5113443517258697	-0.17242572096004516	1.5874810679772664	-0.512828199290541	-0.20258754295070788	1.5550385936963036	-0.4904946120365247	-0.18196402503514378	1.5510941417827961	-0.48422239061657135	-0.16796389085521482	1.5787666217550445	-0.529766527556334	-0.15691682467136064	1.8347147292101182	-0.6355543332310418	-0.17850265961674538	1.7104526837137717	-0.6029193372778819	-0.15846220405773415	1.581194171044893	-0.6140722694567632	-0.18719660594923807	1.547755173301124	-0.5892827836778096	-0.17523548319911497	1.5489495573260366	-0.6227932147926059	-0.14762875038528223	1.5735190938101364	-0.6114035090119152	-0.16693918677431754	1.9889047151527606	-0.5943744332284508	-0.18908814603249852	2.039467025132036	-0.5788932176062025	-0.18657792010601468	1.983504803863134	-0.4921916030356508	-0.1941371002777495	1.8989338466449217	-0.4524005890741545	-0.2248340593621799	1.9024218294750188	-0.45835244017208565	-0.1456501991407008	1.9945232100828159	-0.6911873792551823	-0.12561149341843017	1.9154508126311578	-0.7272349913438985	-0.2270065785720799	1.9112366972827899	-0.6696166660362215
13	0.43333333333333335	-0.1691599919377412	1.831725209630891	-0.5755813286550888	-0.1851055150289639	1.8285251971865653	-0.5056574625459153	-0.17854911867771267	1.707974907350566	-0.5150055869921824	-0.17333064505696694	1.5876225272150186	-0.5160497154156852	-0.20538861436959385	1.554090702629333	-0.49165974986215255	-0.18196402503514378	1.5510941417827961	-0.48422239061657135	-0.16791356547624695	1.5812594302646859	-0.5304417909195497	-0.15733195666049724	1.8360139686960437	-0.6355247815634615	-0.17181485531536556	1.7142343138577896	-0.6104432891581635	-0.157642105889982	1.578171745583547	-0.6183105855742814	-0.1802366724587211	1.5444910168399684	-0.5914950518248291	-0.17343997870539943	1.5458259624029387	-0.6238263253971151	-0.1490799388336734	1.5678088450116126	-0.612953955844584	-0.1691583607308061	1.9877942921774632	-0.5921147935228315	-0.18699384152690995	2.042336704403889	-0.5814213069627848	-0.19072216294380778	1.9822919704103694	-0.48767147288552687	-0.19722964629900447	1.9002471990463106	-0.453612579940137	-0.2248340593621799	1.9024218294750188	-0.45835244017208565	-0.14637118282523817	1.9947474363100224	-0.6941978940801277	-0.12341248648087438	1.9156133916998865	-0.7296136495383696	-0.2270065785720799	1.9112366972827899	-0.6696166660362215
14	0.4666666666666667	-0.16896994705680082	1.8329866633739054	-0.5758470537167995	-0.18606869154860342	1.8286201390813825	-0.5089241107097893	-0.17702385983541452	1.7054334733105883	-0.5163994135460066	-0.17229969367042716	1.5870446054109995	-0.5128741022281893	-0.2074450585037128	1.5536851894518082	-0.4894268211283585	-0.18196402503514378	1.5510941417827961	-0.48422239061657135	-0.1670456207198843	1.579579102050834	-0.5266627150919273	-0.15438065276819302	1.8360155367360185	-0.6346598971358195	-0.16770028443959445	1.7106162762917092	-0.6143798673566329	-0.15126803908924844	1.5730145099660213	-0.6196442847639729	-0.17664456854765342	1.532530657094157	-0.5963877557322014	-0.16679155112598737	1.5374332424448929	-0.6281986775649516	-0.14458837984740605	1.5637081101593822	-0.6124403962055419	-0.16886897846917137	1.9899784065023607	-0.5921555489306751	-0.18687920995860938	2.0449521315906285	-0.581837704008007	-0.1904085429042893	1.9831445037975246	-0.48723104730503375	-0.2053055761369201	1.898710589951632	-0.44458124718912073	-0.2248340593621799	1.9024218294750188	-0.45835244017208565	-0.14414461890727695	1.9947893030805592	-0.6960511266021089	-0.1195085570837501	1.91725080852057	-0.7373890274010019	-0.2270065785720799	1.9112366972827899	-0.6696166660362215
15	0.5	-0.1694964194497832	1.8329818067112467	-0.5759039958986854	-0.18634277667867696	1.8285123325735606	-0.5089825407722637	-0.17684713045582734	1.7040913635283195	-0.5165936925749224	-0.17327334409988668	1.5843400049844287	-0.515757629435316	-0.20414220094943772	1.5528685551192265	-0.48840481671101277	-0.18196402503514378	1.5510941417827961	-0.48422239061657135	-0.16797279972931983	1.579271516381933	-0.5299165578926557	-0.1554218604703813	1.8360874934678344	-0.6378904316239201	-0.1616396561114764	1.7107913676732123	-0.6208483612919724	-0.14721962772514463	1.5721031223893465	-0.6235835790423723	-0.17105444806841877	1.5287712142939174	-0.6012011182171907	-0.16098369519538	1.5332718913176018	-0.6334244083242148	-0.14088666054792623	1.5617702878461712	-0.6158336319793255	-0.1689897744939059	1.9888349024734338	-0.5922394356907326	-0.18491564410273076	2.047772839939985	-0.5850880608688054	-0.19346980738193945	1.9819678811021224	-0.4881452431405312	-0.20973321608553497	1.8951306313958742	-0.4396843858688151	-0.2248340593621799	1.9024218294750188	-0.45835244017208565	-0.1441577002287517	1.9947286194382863	-0.6966046240986963	-0.11487860810328411	1.9174119968003482	-0.7422907910827804	-0.2270065785720799	1.9112366972827899	-0.6696166660362215
16	0.5333333333333333	-0.16814374357005868	1.8317977255773672	-0.5811755862901196	-0.18242571576005076	1.8259920345743184	-0.513115241307058	-0.17659693564471546	1.7055100317991962	-0.517019117772861	-0.1732450737798821	1.5869779254109304	-0.5160171957558312	-0.20439591897959575	1.554009349012531	-0.4883790817907946	-0.18196402503514378	1.5510941417827961	-0.48422239061657135	-0.16777675730989328	1.5809204025248829	-0.5304888999197335	-0.15186956632252982	1.8348320942189218	-0.645566381398445	-0.14955591506816332	1.7046961621308947	-0.6327404130423764	-0.1448993605568165	1.5635049625828072	-0.6238361539440417	-0.17570432361896177	1.521250773768887	-0.5900844492961815	-0.16488039442092328	1.527672007019092	-0.627439792233949	-0.13813500867713088	1.5536437327768315	-0.6166150218737296	-0.16785908516368403	1.9893078080563613	-0.5980084448231782	-0.1827748675575185	2.047936092493106	-0.5874188658591883	-0.18780236202707074	1.981514969794024	-0.49526115998097037	-0.207242803618922	1.8985638581402147	-0.442383197295032	-0.2248340593621799	1.9024218294750188	-0.45835244017208565	-0.14203930128722878	1.9948619836585126	-0.6990246954744732	-0.11297302840614104	1.9147879318264123	-0.7446264914407854	-0.2270065785720799	1.9112366972827899	-0.6696166660362215
